<?xml version="1.0" standalone="no"?>
<!DOCTYPE svg PUBLIC "-//W3C//DTD SVG 20010904//EN"
 "http://www.w3.org/TR/2001/REC-SVG-20010904/DTD/svg10.dtd">
<svg version="1.0" xmlns="http://www.w3.org/2000/svg"
 width="926.000000pt" height="875.000000pt" viewBox="0 0 926.000000 875.000000"
 preserveAspectRatio="xMidYMid meet">
<metadata>
Created by potrace 1.15, written by Peter Selinger 2001-2017
</metadata>
<g transform="translate(0.000000,875.000000) scale(0.100000,-0.100000)"
fill="#000000" stroke="none">
<path d="M2415 8233 c-11 -2 -56 -11 -100 -19 -500 -96 -901 -513 -980 -1020
-14 -88 -15 -432 -13 -3119 3 -2878 4 -3024 22 -3095 106 -441 408 -779 821
-919 193 -65 11 -61 2805 -61 2792 0 2611 -4 2804 61 368 123 662 417 785 785
65 194 61 -36 61 3273 0 2016 -3 3027 -10 3067 -83 478 -393 841 -848 994
-190 63 -26 60 -2802 59 -1389 -1 -2534 -3 -2545 -6z m5066 -94 c292 -29 525
-142 725 -351 175 -183 283 -408 313 -653 14 -116 15 -5913 1 -6025 -20 -161
-81 -339 -154 -457 -196 -313 -486 -502 -851 -553 -58 -8 -786 -10 -2595 -8
-2387 3 -2519 4 -2590 22 -114 27 -186 54 -292 108 -353 180 -582 523 -618
928 -7 77 -10 1080 -8 3055 4 2785 5 2944 22 3015 24 102 63 213 99 285 176
352 524 594 912 634 123 13 4911 13 5036 0z"/>
<path d="M5340 7295 c-8 -2 -49 -9 -90 -15 -167 -27 -371 -110 -530 -215 -99
-66 -292 -259 -359 -360 -64 -97 -131 -234 -162 -332 -13 -41 -29 -73 -36 -73
-7 0 -111 16 -230 35 -120 20 -290 47 -378 61 -88 14 -245 40 -349 57 l-189
32 -4 64 c-12 186 -144 335 -330 371 -107 21 -235 -13 -328 -87 -62 -50 -103
-116 -210 -344 -94 -196 -106 -229 -102 -265 8 -78 78 -133 154 -121 67 11 83
33 188 253 55 115 108 220 117 233 28 39 70 61 116 61 34 0 49 -6 78 -33 48
-44 54 -93 23 -180 l-23 -66 19 -47 c13 -30 31 -55 51 -66 19 -11 117 -32 262
-55 128 -20 232 -40 232 -43 0 -3 -195 -417 -433 -920 -303 -639 -438 -915
-449 -914 -49 4 -158 15 -190 20 l-36 6 5 57 c3 31 13 116 24 189 17 123 17
137 2 173 -21 54 -64 83 -124 83 -90 0 -88 3 -342 -535 -217 -459 -229 -486
-224 -532 7 -80 70 -128 156 -120 69 6 178 40 252 80 115 60 217 184 234 286
8 43 9 43 147 25 l89 -12 158 -230 c87 -127 200 -293 252 -369 l94 -138 -50
-47 c-218 -205 -353 -450 -411 -748 -26 -131 -24 -367 5 -501 83 -395 315
-720 656 -916 140 -82 326 -146 465 -162 94 -11 89 -20 -15 -25 l-100 -5 -3
-82 c-2 -66 -6 -83 -18 -83 -11 0 -14 -9 -12 -32 l3 -33 1835 0 1835 0 3 33
c3 27 9 36 33 44 l30 10 -6 322 c-3 176 -10 512 -15 746 -5 234 -12 625 -15
870 -3 245 -8 492 -11 550 -5 101 -21 824 -47 2177 -6 353 -15 645 -19 649 -5
4 -9 145 -9 313 -1 168 -4 374 -8 456 l-6 150 -76 3 -76 3 -6 -368 c-4 -202
-9 -381 -13 -398 -6 -26 -10 -19 -30 58 -67 249 -186 451 -377 634 -255 246
-582 375 -942 372 -66 -1 -127 -3 -135 -4z m370 -360 c405 -95 704 -414 775
-829 27 -158 18 -293 -31 -456 -82 -270 -272 -492 -527 -614 -424 -204 -922
-96 -1218 262 -142 172 -215 354 -235 590 -3 45 -4 82 0 82 3 0 129 -20 279
-45 539 -88 714 -115 741 -115 97 0 159 120 106 207 -35 59 3 50 -705 163
-404 64 -378 58 -371 89 13 56 109 234 164 303 60 76 154 162 232 215 111 75
284 142 415 163 88 13 288 5 375 -15z m-2056 -1088 c91 -242 170 -450 510
-1345 l127 -332 -28 -36 c-26 -35 -29 -36 -73 -30 -25 4 -99 13 -165 21 -66 8
-253 30 -415 50 -407 50 -514 62 -670 81 -74 8 -144 17 -155 19 -11 2 -37 4
-57 4 -23 1 -38 6 -38 13 0 17 852 1818 859 1818 3 0 50 -118 105 -263z m362
197 l111 -17 6 -126 c9 -205 46 -354 133 -540 123 -263 333 -480 593 -614 129
-67 215 -98 352 -129 87 -19 131 -23 274 -22 252 1 405 37 625 150 261 133
489 372 611 641 22 48 38 75 34 60 -3 -16 -12 -77 -20 -135 -18 -130 -39 -260
-60 -367 -9 -44 -20 -100 -24 -125 -39 -200 -109 -485 -165 -675 -8 -27 -20
-68 -26 -90 -24 -83 -121 -371 -130 -387 -6 -10 -10 -23 -10 -29 0 -6 -6 -25
-14 -42 -7 -18 -19 -48 -26 -67 -68 -185 -270 -621 -376 -810 -221 -395 -466
-728 -742 -1008 -124 -126 -370 -338 -380 -328 -2 3 19 34 47 70 260 340 339
781 216 1211 -34 118 -118 288 -196 398 -73 102 -237 263 -333 327 -36 24 -66
46 -66 49 0 3 17 38 38 76 l37 70 53 6 c109 14 218 94 265 197 31 66 31 206 0
274 -43 95 -174 198 -253 198 -14 0 -30 4 -36 8 -6 4 -59 135 -118 292 -60
157 -162 425 -226 595 -303 797 -340 895 -340 905 0 6 8 9 18 6 9 -3 67 -13
128 -22z m2937 -1882 c3 -818 9 -1498 13 -1512 4 -14 10 -322 14 -685 9 -802
18 -1117 30 -1129 6 -6 10 -18 10 -28 0 -17 -71 -18 -1730 -18 -951 0 -1730 2
-1730 4 0 2 3 11 6 20 5 14 30 16 169 16 116 0 182 5 227 16 65 16 210 63 263
84 17 7 39 16 50 20 61 24 239 110 293 142 34 21 65 38 68 38 8 0 179 117 254
174 289 220 598 549 832 886 405 584 726 1310 946 2145 16 61 37 146 47 190 9
44 21 94 26 110 4 17 13 57 20 90 6 33 17 92 25 130 39 199 74 426 74 486 0
38 4 69 8 69 10 0 32 142 32 201 0 42 5 49 29 42 17 -4 18 -70 24 -1491z
m-3608 -232 c319 -39 643 -77 720 -86 77 -9 140 -17 140 -18 0 0 15 -30 33
-65 l33 -64 -35 -73 -35 -74 -40 15 c-75 26 -226 54 -331 61 -189 12 -422 -28
-600 -103 -47 -20 -89 -40 -95 -44 -5 -5 -16 -9 -25 -9 -8 0 -83 102 -175 237
-212 313 -200 293 -183 293 7 0 274 -32 593 -70z m606 -666 c42 -9 82 -20 88
-24 8 -4 -33 -101 -130 -306 -78 -164 -150 -318 -161 -342 l-19 -43 -28 38
c-32 44 -384 562 -395 581 -16 27 198 98 339 111 98 10 216 4 306 -15z m414
-187 c105 -78 221 -220 284 -343 86 -173 106 -258 105 -469 0 -155 -3 -178
-28 -260 -130 -432 -487 -719 -922 -742 -409 -22 -778 193 -962 562 -74 147
-104 279 -103 455 0 221 74 440 205 608 47 61 123 139 129 131 2 -2 77 -112
167 -244 377 -553 418 -611 445 -623 14 -7 46 -12 71 -12 79 0 92 20 295 450
100 212 197 418 215 458 24 50 38 71 47 66 6 -4 30 -21 52 -37z"/>
</g>
</svg>
