<?xml version="1.0" standalone="no"?>
<!DOCTYPE svg PUBLIC "-//W3C//DTD SVG 20010904//EN"
 "http://www.w3.org/TR/2001/REC-SVG-20010904/DTD/svg10.dtd">
<svg version="1.0" xmlns="http://www.w3.org/2000/svg"
 width="700.000000pt" height="700.000000pt" viewBox="0 0 700.000000 700.000000"
 preserveAspectRatio="xMidYMid meet">
<metadata>
Created by potrace 1.11, written by Peter Selinger 2001-2013
</metadata>
<g transform="translate(0.000000,700.000000) scale(0.100000,-0.100000)"
fill="#000000" stroke="none">
<path d="M1600 6984 c-30 -8 -74 -26 -97 -40 -50 -29 -143 -119 -143 -138 0
-8 -7 -19 -15 -26 -35 -29 -47 -108 -51 -330 -1 -118 -3 -220 -3 -226 -1 -6
-29 -33 -63 -61 -79 -65 -273 -255 -359 -353 -432 -493 -720 -1104 -824 -1750
-5 -32 -8 -52 -20 -150 -20 -153 -27 -567 -11 -710 19 -178 22 -197 41 -310
19 -108 21 -117 33 -165 6 -22 13 -51 16 -65 57 -286 209 -653 403 -975 230
-383 603 -789 933 -1015 19 -13 37 -27 40 -30 7 -9 166 -111 235 -152 141 -84
411 -212 568 -269 71 -26 283 -93 327 -104 372 -88 546 -109 890 -109 200 0
385 11 485 28 17 3 48 8 70 12 22 3 74 12 115 20 41 8 86 17 100 20 121 23
465 134 584 188 31 14 60 26 63 26 13 0 321 159 390 201 570 347 1031 847
1327 1438 97 192 199 460 231 606 2 6 12 46 24 90 26 102 48 198 56 255 4 24
8 47 10 50 2 4 7 29 10 56 4 27 8 56 10 64 25 96 26 807 1 849 -2 3 -7 33 -10
66 -4 33 -9 67 -11 75 -2 8 -6 37 -10 64 -3 27 -8 53 -10 56 -2 4 -6 20 -9 36
-26 144 -93 379 -150 525 -21 52 -42 106 -48 121 -7 19 -11 284 -11 800 0 620
-3 787 -14 843 -36 181 -169 354 -334 433 -149 73 -141 72 -809 69 l-595 -2
-79 -28 c-78 -27 -194 -96 -229 -135 -18 -19 -19 -19 -110 9 -183 58 -451 116
-622 134 -33 4 -71 9 -85 12 -14 3 -144 6 -290 8 -241 3 -306 0 -480 -20 -84
-10 -265 -42 -356 -63 l-80 -19 -50 34 c-100 68 -124 71 -549 71 -302 1 -391
-2 -435 -14z"/>
</g>
</svg>
