<svg xmlns="http://www.w3.org/2000/svg" version="1.0" width="726" height="822.6923217773438" preserveAspectRatio="xMidYMid meet" style=""><rect id="backgroundrect" width="100%" height="100%" x="0" y="0" fill="none" stroke="none"/>
<metadata>
Created by potrace 1.15, written by Peter Selinger 2001-2017
</metadata>

<g class="currentLayer" style=""><title>Layer 1</title><path fill="#92d050" fill-opacity="1" stroke="#ffffff" stroke-opacity="1" stroke-width="1" stroke-dasharray="none" stroke-linejoin="miter" stroke-linecap="butt" stroke-dashoffset="" fill-rule="nonzero" opacity="1" marker-start="" marker-mid="" marker-end="" id="svg_7" d="M625.9204448993776,6.311645344051649 C625.9204448993776,6.311645344051649 108.30327672554293,2.799995627811251 108.30327672554293,2.799995627811251 C108.30327672554293,2.799995627811251 54.926201038688895,23.16756398200556 54.926201038688895,23.16756398200556 C54.926201038688895,23.16756398200556 4.358445124827169,87.78191876082889 5.060775068075248,87.07958881758081 C5.763105011323329,86.37725887433274 2.953785238331011,161.5265628018772 2.953785238331011,161.5265628018772 C2.953785238331011,161.5265628018772 3.6561151815790884,710.2260277918853 3.6561151815790884,710.2260277918853 C3.6561151815790884,710.2260277918853 7.167764897819488,734.1052458623199 7.167764897819488,734.1052458623199 C7.167764897819488,734.1052458623199 13.488734387052205,745.342524954289 13.488734387052205,746.0448548975372 C13.488734387052205,746.7471848407854 21.21436376278108,755.1751441597623 21.21436376278108,755.1751441597623 C21.21436376278108,755.1751441597623 26.13067336551764,765.7100933084836 26.13067336551764,765.7100933084836 C26.13067336551764,765.7100933084836 31.0469829682542,774.1380526274605 31.74931291150228,776.2450424572047 C32.451642854750354,778.352032286949 40.17727223047922,781.8636820031894 40.17727223047922,783.9706718329336 C40.17727223047922,786.0776616626779 54.223871095440806,792.3986311519105 54.223871095440806,792.3986311519105 C54.223871095440806,792.3986311519105 64.758820244162,798.7196006411433 65.46115018741007,798.7196006411433 C66.16348013065816,798.7196006411433 87.93570837134862,805.040570130376 87.93570837134862,805.040570130376 C87.93570837134862,805.040570130376 106.19628689579869,807.8498899033683 106.19628689579869,807.8498899033683 C106.19628689579869,807.8498899033683 617.4924855804006,813.4685294493531 617.4924855804006,813.4685294493531 C617.4924855804006,813.4685294493531 641.3717036508352,807.1475599601202 640.6693737075872,807.1475599601202 C639.9670437643391,807.1475599601202 663.1439318915258,798.0172706978952 662.6944517544525,797.8346930350875 C663.1439318915258,798.0172706978952 679.2975205862316,779.0543622301971 679.2975205862316,779.0543622301971 C679.2975205862316,779.0543622301971 696.8557691674336,761.4961136489951 696.8557691674336,761.4961136489951 C696.8557691674336,761.4961136489951 707.3907183161548,750.9611645002739 707.3907183161548,750.2588345570258 C707.3907183161548,749.5565046137777 714.4140177486356,723.5702967135987 713.9645380362357,723.3877184341422 C714.4140177486356,723.5702967135987 719.3303273513721,713.7376775081257 718.8808476796944,713.5550991472248 C719.3303273513721,713.7376775081257 717.2233375216279,97.61453796630197 717.2233375216279,97.61453796630197 C717.2233375216279,97.61453796630197 702.4744087134183,57.58173120116146 702.4744087134183,57.58173120116146 C702.4744087134183,57.58173120116146 688.4278098484566,40.725812563207555 687.9783299208113,40.02067799338937 " style="color: rgb(103, 103, 231);" class=""/><g transform="translate(0,875) scale(0.10000000149011612,-0.10000000149011612) " fill="#000000" stroke="#6767e7" id="svg_1" class="" fill-opacity="1" stroke-opacity="1">
<path d="M1096.982532103012,8708.612919979127 c-10.885657900959789,-1.9723687554206368 -55.417894768522565,-10.848028154813498 -98.96052637236171,-18.737503176496045 c-494.8026318618086,-94.67370026019054 -891.634342614979,-505.9125857653932 -969.8131584491448,-1005.9080652645245 c-13.854473692130641,-86.78422523850799 -14.84407895585426,-426.0316511708574 -12.864868428407023,-3075.9090740784823 c2.9688157911708517,-2838.2386390502957 3.958421054894469,-2982.2215581960018 21.771315801919577,-3052.2406490134344 c104.89815795470342,-434.9073105702503 403.7589475992358,-768.2376302363377 812.4659215170897,-906.3034431157823 c190.9938158986581,-64.10198455117067 10.885657900959789,-60.15724704032941 2775.8427647447465,-60.15724704032941 c2762.977896316339,0 2583.8593435823645,-3.944737510841272 2774.8531594810224,60.15724704032941 c364.1747370502911,121.30067845836912 655.1186845850345,411.23888550520263 776.8401320230395,774.1547365025998 c64.32434214203512,191.31976927580172 60.36592108714065,-35.50263759757146 60.36592108714065,3227.781468245871 c0,1988.1477054640013 -2.9688157911708517,2985.180111329133 -9.896052637236172,3024.627486437546 c-82.13723688906022,471.39613254553205 -388.9148686433815,829.3810616543776 -839.1852636376274,980.2672714440562 c-188.02500010748727,62.12961579575004 -25.729736856814046,59.171062662619086 -2772.8739489535756,58.18487828490876 c-1374.5617113121043,-0.9861843777103179 -2507.659738275646,-2.9585531331309545 -2518.5453961766057,-5.917106266261909 zm5013.340266023845,-92.70133150476991 c288.9647370072962,-28.599346953599223 519.542763454899,-140.03818163486517 717.4638161996224,-346.15071657632166 c173.18092115163302,-180.4717411209882 280.05828963378366,-402.3632261058098 309.7464475454922,-643.9783986448377 c13.854473692130641,-114.3973878143969 14.84407895585426,-5831.308225401111 0.9896052637236173,-5941.7608757046655 c-19.792105274472345,-158.77568481136123 -80.15802636161298,-334.3165040437978 -152.39921061343705,-450.6862606136154 c-193.96263168982895,-308.67571022332953 -480.948158169678,-495.0645576105797 -842.1540794287982,-545.3599608738059 c-57.3971052959698,-7.889475021682545 -777.829737286763,-9.86184377710318 -2568.025659362787,-7.889475021682545 c-2362.1877645082745,2.9585531331309545 -2492.815659319792,3.944737510841272 -2563.077633044168,21.696056309626996 c-112.81500006449237,26.626978198178588 -184.0665790525928,53.253956396357175 -288.9647370072962,106.50791279271435 c-349.33065809443684,177.51318798785724 -575.9502634871452,515.7744295424964 -611.5760529811954,915.1791025151751 c-6.927236846065321,75.9361970836945 -9.896052637236172,1065.0791279271436 -7.916842109788938,3012.793273905022 c3.958421054894469,2746.5234919232357 4.948026318618087,2903.3268079791765 21.771315801919577,2973.345898796609 c23.750526329366814,100.59080652645245 62.345131614587885,210.05727245229775 97.97092110863811,281.0625476474407 c174.17052641535662,347.13690095403194 518.5531581911755,585.793520359929 902.5200005159389,625.2408954683417 c121.72144743800492,12.820396910234136 4859.951450146685,12.820396910234136 4983.652108112136,0 z" id="svg_2" fill="#000000" fill-opacity="1" stroke="#6767e7" stroke-opacity="1"/>
<!--<path d="M7823 7674 c-7 -3 -35 -37 -64 -75 -72 -97 -144 -158 -258 -218 -54
-28 -105 -58 -112 -67 -35 -42 0 -124 58 -139 33 -8 114 30 214 100 l78 55 3
-406 3 -406 33 -29 c38 -34 93 -39 131 -13 50 36 51 45 51 604 0 557 -1 564
-49 590 -20 10 -67 12 -88 4z"/>-->
<path d="M3991.577928494593,7783.571973686848 c-7.916842109788938,-1.9723687554206368 -48.49065792245724,-8.875659399392864 -89.06447373512555,-14.792765665654771 c-165.26407904184407,-26.626978198178588 -367.14355284146205,-108.48028154813498 -524.490789773517,-212.02964120771838 c-97.97092110863811,-65.08816892888099 -288.9647370072962,-255.4217538269724 -355.2682896767786,-355.0263759757145 c-63.3347368783115,-95.65988463790086 -129.63828954779387,-230.76714438421445 -160.31605272322597,-327.4132133998256 c-12.864868428407023,-40.433559486123045 -28.6985526479849,-71.99145957285322 -35.625789494050224,-71.99145957285322 c-6.927236846065321,0 -109.84618427332151,15.77895004336509 -227.60921065643194,34.516453219861134 c-118.75263164683408,19.72368755420636 -286.98552647984894,46.350665752384955 -374.07078968752734,60.15724704032941 c-87.08526320767831,13.806581287944454 -242.4532896122862,39.44737510841272 -345.37223703954237,56.21250952948813 l-187.03539484376367,31.55790008673018 l-3.958421054894469,63.11580017346036 c-11.875263164683407,183.43029425411916 -142.5031579762009,330.3717665329566 -326.5697370287937,365.87440413052803 c-105.88776321842704,20.70987193191668 -232.55723697505005,-12.820396910234136 -324.59052650134646,-85.79804086079768 c-61.35552635086427,-49.309218885515904 -101.9293421635326,-114.3973878143969 -207.8171053819596,-339.2474259323494 c-93.02289479002002,-193.29213803122235 -104.89815795470342,-225.83622249566284 -100.93973689980895,-261.3388600932343 c7.916842109788938,-76.92238146140481 77.18921057044214,-131.1625222354723 152.39921061343705,-119.32830970294849 c66.30355266948236,10.848028154813498 82.13723688906022,32.544084464440495 186.04578958004004,249.50464756071045 c54.42828950479894,113.41120343668658 106.87736848215066,216.96056309626996 115.7838158556632,229.7809600065041 c27.708947384261283,38.461190730702405 69.27236846065321,60.15724704032941 114.7942105919396,60.15724704032941 c33.64657896660299,0 48.49065792245724,-5.917106266261909 77.18921057044214,-32.544084464440495 c47.50105265873363,-43.39211261925399 53.43868424107533,-91.71514712705958 22.760921065643196,-177.51318798785724 l-22.760921065643196,-65.08816892888099 l18.802500010748727,-46.350665752384955 c12.864868428407023,-29.585531331309543 30.677763175432133,-54.24014077406749 50.469868449904475,-65.08816892888099 c18.802500010748727,-10.848028154813498 115.7838158556632,-31.55790008673018 259.27657909558775,-54.24014077406749 c126.669473756623,-19.72368755420636 229.5884211838792,-39.44737510841272 229.5884211838792,-42.40592824154368 c0,-2.9585531331309545 -192.97302642610535,-411.23888550520263 -428.4990791923262,-907.2896274934926 c-299.8503949082561,-630.1718173568933 -433.44710551094437,-902.3587056049411 -444.33276341190407,-901.3725212272308 c-48.49065792245724,3.944737510841272 -156.35763166833152,14.792765665654771 -188.02500010748727,19.72368755420636 l-35.625789494050224,5.917106266261909 l4.948026318618087,56.21250952948813 c2.9688157911708517,30.571715709019863 12.864868428407023,114.3973878143969 23.750526329366814,186.3888473872501 c16.823289483301494,121.30067845836912 16.823289483301494,135.10725974631356 1.979210527447235,170.60989734388502 c-20.781710538195963,53.253956396357175 -63.3347368783115,81.8533033499564 -122.71105270172853,81.8533033499564 c-89.06447373512555,0 -87.08526320767831,2.9585531331309545 -338.4450001934771,-527.6086420750202 c-214.74434222802492,-452.65862936903596 -226.61960539270834,-479.2856075672146 -221.67157907409026,-524.6500889418892 c6.927236846065321,-78.89475021682544 69.27236846065321,-126.23160034692071 154.37842114088429,-118.34212532523817 c68.28276319692958,5.917106266261909 176.14973694280386,39.44737510841272 249.38052645835154,78.89475021682544 c113.80460532821597,59.171062662619086 214.74434222802492,181.45792549869853 231.5676317113264,282.04873202515097 c7.916842109788938,42.40592824154368 8.906447373512556,42.40592824154368 145.47197376737174,24.654609442757952 l88.07486847140193,-11.834212532523818 l156.35763166833152,-226.82240687337315 c86.09565794395469,-125.2454159692104 197.92105274472343,-288.9520226691232 249.38052645835154,-363.9020353751074 l93.02289479002002,-136.0934441240239 l-49.480263186180856,-46.350665752384955 c-215.73394749174855,-202.16779743061522 -349.33065809443684,-443.78296996964315 -406.7277633904067,-737.665914527318 c-25.729736856814046,-129.1901534800517 -23.750526329366814,-361.9296666196867 4.948026318618087,-494.0783732328694 c82.13723688906022,-389.5428291955757 311.72565807293944,-710.052751951429 649.1810530026929,-903.3448899826514 c138.54473692130642,-80.86711897224609 322.6113159738992,-143.98291914570643 460.16644763148196,-159.76186918907155 c93.02289479002002,-10.848028154813498 88.07486847140193,-19.72368755420636 -14.84407895585426,-24.654609442757952 l-98.96052637236171,-4.93092188855159 l-2.9688157911708517,-80.86711897224609 c-1.979210527447235,-65.08816892888099 -5.937631582341703,-81.8533033499564 -17.812894747025112,-81.8533033499564 c-10.885657900959789,0 -13.854473692130641,-8.875659399392864 -11.875263164683407,-31.55790008673018 l2.9688157911708517,-32.544084464440495 l1815.9256589328375,0 l1815.9256589328375,0 l2.9688157911708517,32.544084464440495 c2.9688157911708517,26.626978198178588 8.906447373512556,35.50263759757146 32.65697370287936,43.39211261925399 l29.68815791170852,9.86184377710318 l-5.937631582341703,317.55136962272246 c-2.9688157911708517,173.56845047701597 -9.896052637236172,504.92640138768286 -14.84407895585426,735.6935457718972 c-4.948026318618087,230.76714438421445 -11.875263164683407,616.3652360689489 -14.84407895585426,857.9804086079768 c-2.9688157911708517,241.61517253902792 -7.916842109788938,485.2027138334765 -10.885657900959789,542.401407740675 c-4.948026318618087,99.60462214874212 -20.781710538195963,812.615927233302 -46.51144739501001,2146.9233902753626 c-5.937631582341703,348.1230853317423 -14.84407895585426,636.0889236231552 -18.802500010748727,640.0336611339966 c-4.948026318618087,3.944737510841272 -8.906447373512556,142.99673476799612 -8.906447373512556,308.67571022332953 c-0.9896052637236173,165.67897545533344 -3.958421054894469,368.832957263659 -7.916842109788938,449.70007623590504 l-5.937631582341703,147.9276566565477 l-75.2100000429949,2.9585531331309545 l-75.2100000429949,2.9585531331309545 l-5.937631582341703,-362.91585099739706 c-3.958421054894469,-199.20924429748425 -8.906447373512556,-375.7362479076312 -12.864868428407023,-392.5013823287066 c-5.937631582341703,-25.64079382046827 -9.896052637236172,-18.737503176496045 -29.68815791170852,57.19869390719845 c-66.30355266948236,245.5599100498692 -184.0665790525928,444.76915434735344 -373.0811844238037,625.2408954683417 c-252.34934224952238,242.60135691673824 -575.9502634871452,369.8191416413693 -932.2081584276475,366.8605885082383 c-65.31394740575873,-0.9861843777103179 -125.67986849289937,-2.9585531331309545 -133.59671060268832,-3.944737510841272 zm366.1539475777384,-355.0263759757145 c400.790131808065,-93.68751588248021 696.6821056614265,-408.2803323720717 766.9440793858034,-817.5468491218537 c26.719342120537664,-155.81713167823025 17.812894747025112,-288.9520226691232 -30.677763175432133,-449.70007623590504 c-81.14763162533662,-266.2697819817859 -269.1726317328239,-485.2027138334765 -521.5219739823464,-605.5172079141353 c-419.5926318188137,-201.1816130529049 -912.416053153175,-94.67370026019054 -1205.3392112153658,258.3803069601034 c-140.52394744875363,169.6237129661747 -212.7651317005777,349.1092697094526 -232.55723697505005,581.8487828490877 c-2.9688157911708517,44.37829699696431 -3.958421054894469,80.86711897224609 0,80.86711897224609 c2.9688157911708517,0 127.65907902034661,-19.72368755420636 276.09986857888924,-44.37829699696431 c533.3972371470297,-86.78422523850799 706.5781582986626,-113.41120343668658 733.2975004192003,-113.41120343668658 c95.99171058119087,0 157.34723693205513,118.34212532523817 104.89815795470342,204.14016618603586 c-34.636184230326606,58.18487828490876 2.9688157911708517,49.309218885515904 -697.6717109251501,160.74805356678183 c-399.8005265443414,63.11580017346036 -374.07078968752734,57.19869390719845 -367.14355284146205,87.77040961621832 c12.864868428407023,55.226325151777814 107.86697374587428,230.76714438421445 162.29526325067323,298.81386644622637 c59.37631582341704,74.95001270598418 152.39921061343705,159.76186918907155 229.5884211838792,212.02964120771838 c109.84618427332151,73.96382832827385 281.04789489750726,140.03818163486517 410.68618444530114,160.74805356678183 c87.08526320767831,12.820396910234136 285.0063159524018,4.93092188855159 371.10197389635647,-14.792765665654771 zm-2034.6284222157572,-1072.9686029488262 c90.05407899884919,-238.65661940589698 168.2328948330149,-443.78296996964315 504.69868449904476,-1326.417988020378 l125.67986849289937,-327.4132133998256 l-27.708947384261283,-35.50263759757146 c-25.729736856814046,-34.516453219861134 -28.6985526479849,-35.50263759757146 -72.24118425182405,-29.585531331309543 c-24.740131593090428,3.944737510841272 -97.97092110863811,12.820396910234136 -163.28486851439686,20.70987193191668 c-65.31394740575873,7.889475021682545 -250.37013172207517,29.585531331309543 -410.68618444530114,49.309218885515904 c-402.7693423355122,49.309218885515904 -508.6571055539393,61.143431418039725 -663.0355266948236,79.88093459453577 c-73.23078951554768,7.889475021682545 -142.5031579762009,16.76513442107541 -153.38881587716068,18.737503176496045 c-10.885657900959789,1.9723687554206368 -36.61539475777384,3.944737510841272 -56.40750003224618,3.944737510841272 c-22.760921065643196,0.9861843777103179 -37.60500002149745,5.917106266261909 -37.60500002149745,12.820396910234136 c0,16.76513442107541 843.1436846925218,1792.8831986773585 850.0709215385872,1792.8831986773585 c2.9688157911708517,0 49.480263186180856,-116.36975656981753 103.9085526909798,-259.36649133781367 zm358.23710546794945,194.27832240893267 l109.84618427332151,-16.76513442107541 l5.937631582341703,-124.25923159150008 c8.906447373512556,-202.16779743061522 45.52184213128639,-349.1092697094526 131.61750007524108,-532.5395639635718 c121.72144743800492,-259.36649133781367 329.5385528199645,-473.3685013009527 586.835921388105,-605.5172079141353 c127.65907902034661,-66.0743533065913 212.7651317005777,-96.64606901561118 348.34105283071324,-127.21778472463103 c86.09565794395469,-18.737503176496045 129.63828954779387,-22.68224068733732 271.1518422602711,-21.696056309626996 c249.38052645835154,0.9861843777103179 400.790131808065,36.48882197528177 618.5032898272608,147.9276566565477 c258.2869738318641,131.1625222354723 483.9169739608488,366.8605885082383 604.6488161351302,632.144186112314 c21.771315801919577,47.33685013009527 37.60500002149745,73.96382832827385 33.64657896660299,59.171062662619086 c-2.9688157911708517,-15.77895004336509 -11.875263164683407,-75.9361970836945 -19.792105274472345,-133.13489099089296 c-17.812894747025112,-128.20396910234135 -38.59460528522107,-256.4079382046827 -59.37631582341704,-361.9296666196867 c-8.906447373512556,-43.39211261925399 -19.792105274472345,-98.61843777103181 -23.750526329366814,-123.27304721378977 c-38.59460528522107,-197.23687554206361 -107.86697374587428,-478.29942318950424 -163.28486851439686,-665.6744549544646 c-7.916842109788938,-26.626978198178588 -19.792105274472345,-67.06053768430164 -25.729736856814046,-88.75659399392862 c-23.750526329366814,-81.8533033499564 -119.74223691055768,-365.87440413052803 -128.64868428407024,-381.6533541738931 c-5.937631582341703,-9.86184377710318 -9.896052637236172,-22.68224068733732 -9.896052637236172,-28.599346953599223 c0,-5.917106266261909 -5.937631582341703,-24.654609442757952 -13.854473692130641,-41.41974386383336 c-6.927236846065321,-17.75131879878573 -18.802500010748727,-47.33685013009527 -25.729736856814046,-66.0743533065913 c-67.29315793320598,-182.44410987640885 -267.19342120537664,-612.4204985581075 -372.0915791600801,-798.8093459453577 c-218.7027632829194,-389.5428291955757 -461.1560528952056,-717.9422269731116 -734.2871056829241,-994.0738527320007 c-122.71105270172853,-124.25923159150008 -366.1539475777384,-333.3303196660875 -376.05000021497455,-323.46847588898436 c-1.979210527447235,2.9585531331309545 18.802500010748727,33.53026884215082 46.51144739501001,69.03290643972227 c257.2973685681405,335.30268842150815 335.4761844023063,770.2099989917584 213.75473696430132,1194.2692814071952 c-33.64657896660299,116.36975656981753 -116.77342111938684,284.02110078057166 -193.96263168982895,392.5013823287066 c-72.24118425182405,100.59080652645245 -234.53644750249725,259.36649133781367 -329.5385528199645,322.482291511274 c-35.625789494050224,23.668425065047636 -65.31394740575873,45.36448137467463 -65.31394740575873,48.32303450780559 c0,2.9585531331309545 16.823289483301494,37.47500635299209 37.60500002149745,74.95001270598418 l36.61539475777384,69.03290643972227 l52.44907897735171,5.917106266261909 c107.86697374587428,13.806581287944454 215.73394749174855,92.70133150476991 262.2453948867585,194.27832240893267 c30.677763175432133,65.08816892888099 30.677763175432133,203.1539818083255 0,270.2145194926271 c-42.553026340115544,93.68751588248021 -172.19131588790938,195.26450678664298 -250.37013172207517,195.26450678664298 c-13.854473692130641,0 -29.68815791170852,3.944737510841272 -35.625789494050224,7.889475021682545 c-5.937631582341703,3.944737510841272 -58.38671055969342,133.13489099089296 -116.77342111938684,287.96583829141287 c-59.37631582341704,154.83094730051994 -160.31605272322597,419.12836052688516 -223.6507896015375,586.7797047376391 c-299.8503949082561,785.9889490351236 -336.4657896660298,882.6350180507346 -336.4657896660298,892.496861827838 c0,5.917106266261909 7.916842109788938,8.875659399392864 17.812894747025112,5.917106266261909 c8.906447373512556,-2.9585531331309545 66.30355266948236,-12.820396910234136 126.669473756623,-21.696056309626996 zm2906.470659556264,-1855.998998850819 c2.9688157911708517,-806.6988209670402 8.906447373512556,-1477.3041978100566 12.864868428407023,-1491.1107790980009 c3.958421054894469,-13.806581287944454 9.896052637236172,-317.55136962272246 13.854473692130641,-675.536298731568 c8.906447373512556,-790.9198709236751 17.812894747025112,-1101.5679499024254 29.68815791170852,-1113.402162434949 c5.937631582341703,-5.917106266261909 9.896052637236172,-17.75131879878573 9.896052637236172,-27.613162575888907 c0,-16.76513442107541 -70.26197372437682,-17.75131879878573 -1712.0171062418576,-17.75131879878573 c-941.11460580116,0 -1712.0171062418576,1.9723687554206368 -1712.0171062418576,3.944737510841272 c0,1.9723687554206368 2.9688157911708517,10.848028154813498 5.937631582341703,19.72368755420636 c4.948026318618087,13.806581287944454 29.68815791170852,15.77895004336509 167.2432895692913,15.77895004336509 c114.7942105919396,0 180.10815799769838,4.93092188855159 224.6403948652611,15.77895004336509 c64.32434214203512,15.77895004336509 207.8171053819596,62.12961579575004 260.26618435931135,82.83948772766672 c16.823289483301494,6.903290643972227 38.59460528522107,15.77895004336509 49.480263186180856,19.72368755420636 c60.36592108714065,23.668425065047636 236.51565802994452,108.48028154813498 289.9543422710198,140.03818163486517 c33.64657896660299,20.70987193191668 64.32434214203512,37.47500635299209 67.29315793320598,37.47500635299209 c7.916842109788938,0 177.13934220652746,115.38357219210722 251.35973698579875,171.59608172159537 c285.99592121612534,216.96056309626996 591.7839477067231,541.4152233629648 823.3515794180495,873.7593586513418 c400.790131808065,575.9316765828257 718.4534214633462,1291.9015348005166 936.1665794825419,2115.365490188632 c15.833684219577876,60.15724704032941 36.61539475777384,143.98291914570643 46.51144739501001,187.37503176496043 c8.906447373512556,43.39211261925399 20.781710538195963,92.70133150476991 25.729736856814046,108.48028154813498 c3.958421054894469,16.76513442107541 12.864868428407023,56.21250952948813 19.792105274472345,88.75659399392862 c5.937631582341703,32.544084464440495 16.823289483301494,90.72896274934926 24.740131593090428,128.20396910234135 c38.59460528522107,196.2506911643533 73.23078951554768,420.1145449045955 73.23078951554768,479.2856075672146 c0,37.47500635299209 3.958421054894469,68.04672206201195 7.916842109788938,68.04672206201195 c9.896052637236172,0 31.66736843915575,140.03818163486517 31.66736843915575,198.22305991977393 c0,41.41974386383336 4.948026318618087,48.32303450780559 28.6985526479849,41.41974386383336 c16.823289483301494,-3.944737510841272 17.812894747025112,-69.03290643972227 23.750526329366814,-1470.4009071660844 zm-3570.495791514811,-228.7947756287938 c315.6840791278339,-38.461190730702405 636.3161845742859,-75.9361970836945 712.5157898810044,-84.81185648308735 c76.19960530671852,-8.875659399392864 138.54473692130642,-16.76513442107541 138.54473692130642,-17.75131879878573 c0,0 14.84407895585426,-29.585531331309543 32.65697370287936,-64.10198455117067 l32.65697370287936,-63.11580017346036 l-34.636184230326606,-71.99145957285322 l-34.636184230326606,-72.97764395056355 l-39.58421054894469,14.792765665654771 c-74.22039477927129,25.64079382046827 -223.6507896015375,53.253956396357175 -327.5593422925173,60.15724704032941 c-187.03539484376367,11.834212532523818 -417.6134212913665,-27.613162575888907 -593.7631582341703,-101.57699090416276 c-46.51144739501001,-19.72368755420636 -88.07486847140193,-39.44737510841272 -94.01250005374364,-43.39211261925399 c-4.948026318618087,-4.93092188855159 -15.833684219577876,-8.875659399392864 -24.740131593090428,-8.875659399392864 c-7.916842109788938,0 -82.13723688906022,100.59080652645245 -173.18092115163302,233.7256975173454 c-209.79631590940684,308.67571022332953 -197.92105274472343,288.9520226691232 -181.09776326142193,288.9520226691232 c6.927236846065321,0 271.1518422602711,-31.55790008673018 586.835921388105,-69.03290643972227 zm599.7007898165122,-656.7987955550718 c41.563421076391926,-8.875659399392864 81.14763162533662,-19.72368755420636 87.08526320767831,-23.668425065047636 c7.916842109788938,-3.944737510841272 -32.65697370287936,-99.60462214874212 -128.64868428407024,-301.77241957935735 c-77.18921057044214,-161.73423794449218 -148.44078955854258,-313.60663211188114 -159.3264474595024,-337.2750571769288 l-18.802500010748727,-42.40592824154368 l-27.708947384261283,37.47500635299209 c-31.66736843915575,43.39211261925399 -380.008421269869,554.2356202731987 -390.89407917082883,572.9731234496949 c-15.833684219577876,26.626978198178588 195.94184221727622,96.64606901561118 335.4761844023063,109.46646592584531 c96.98131584491448,9.86184377710318 213.75473696430132,3.944737510841272 302.81921069942683,-14.792765665654771 zm409.69657918157753,-184.4164786318295 c103.9085526909798,-76.92238146140481 218.7027632829194,-216.96056309626996 281.04789489750726,-338.2612415546391 c85.10605268023109,-170.60989734388502 104.89815795470342,-254.43556944926206 103.9085526909798,-462.5204731461392 c0,-152.8585785450993 -2.9688157911708517,-175.54081923243663 -27.708947384261283,-256.4079382046827 c-128.64868428407024,-426.0316511708574 -481.93776343340164,-709.0665675737187 -912.416053153175,-731.7488082610561 c-404.7485528629594,-21.696056309626996 -769.9128951769742,190.33358489809137 -952.0002637021197,554.2356202731987 c-73.23078951554768,144.96910352341675 -102.91894742725619,275.1454413811787 -101.9293421635326,448.71389185819476 c0,217.9467474739803 73.23078951554768,433.92112619253993 202.86907906334153,599.6001016478734 c46.51144739501001,60.15724704032941 121.72144743800492,137.07962850173422 127.65907902034661,129.1901534800517 c1.979210527447235,-1.9723687554206368 76.19960530671852,-110.45265030355563 165.26407904184407,-240.62898816131764 c373.0811844238037,-545.3599608738059 413.655000236472,-602.5586547810043 440.37434235700965,-614.3928673135282 c13.854473692130641,-6.903290643972227 45.52184213128639,-11.834212532523818 70.26197372437682,-11.834212532523818 c78.17881583416576,0 91.04368426257278,19.72368755420636 291.93355279846713,443.78296996964315 c98.96052637236171,209.07108807458744 194.95223695355259,412.225069882913 212.7651317005777,451.6724449913257 c23.750526329366814,49.309218885515904 37.60500002149745,70.01909081743258 46.51144739501001,65.08816892888099 c5.937631582341703,-3.944737510841272 29.68815791170852,-20.70987193191668 51.45947371362809,-36.48882197528177 z" id="svg_3" fill="#000000" fill-opacity="1" stroke="#6767e7" stroke-opacity="1"/>
<!--<path d="M7270 6270 l0 -40 495 0 495 0 0 40 0 40 -495 0 -495 0 0 -40z"/>-->
</g><path fill="#0bd50b" fill-opacity="1" stroke="#ffffff" stroke-opacity="1" stroke-width="1" stroke-dasharray="none" stroke-linejoin="miter" stroke-linecap="butt" stroke-dashoffset="" fill-rule="nonzero" opacity="1" marker-start="" marker-mid="" marker-end="" id="svg_5" d="M158.9650279965216,723.0349374668855 " style="color: rgb(103, 103, 231);"/><path fill="#0bd50b" fill-opacity="1" stroke="#ffffff" stroke-opacity="1" stroke-width="1" stroke-dasharray="none" stroke-linejoin="miter" stroke-linecap="butt" stroke-dashoffset="" fill-rule="nonzero" opacity="1" marker-start="" marker-mid="" marker-end="" id="svg_4" d="M713.2475410026117,794.7999719522151 " style="color: rgb(103, 103, 231);"/><path fill="#0bd50b" fill-opacity="1" stroke="#ffffff" stroke-opacity="1" stroke-width="1" stroke-dasharray="none" stroke-linejoin="miter" stroke-linecap="butt" stroke-dashoffset="" fill-rule="nonzero" opacity="1" marker-start="" marker-mid="" marker-end="" id="svg_6" d="M114.10908444324092,7.3706249397941965 " style="color: rgb(103, 103, 231);"/><path fill="#0bd50b" fill-opacity="1" stroke="#ffffff" stroke-opacity="1" stroke-width="1" stroke-dasharray="none" stroke-linejoin="miter" stroke-linecap="butt" stroke-dashoffset="" fill-rule="nonzero" opacity="1" marker-start="" marker-mid="" marker-end="" id="svg_9" d="M371.0769145153724,104.19859619851387 " style="color: rgb(103, 103, 231);"/></g></svg>