<?xml version="1.0" standalone="no"?>
<!DOCTYPE svg PUBLIC "-//W3C//DTD SVG 20010904//EN"
 "http://www.w3.org/TR/2001/REC-SVG-20010904/DTD/svg10.dtd">
<svg version="1.0" xmlns="http://www.w3.org/2000/svg"
 width="1920.000000pt" height="685.000000pt" viewBox="0 0 1920.000000 685.000000"
 preserveAspectRatio="xMidYMid meet">
<metadata>
Created by potrace 1.15, written by Peter Selinger 2001-2017
</metadata>
<g transform="translate(0.000000,685.000000) scale(0.100000,-0.100000)"
fill="#ffff33" stroke="none">
<path d="M2315 6841 c26 -6 21 -8 -38 -19 -176 -33 -421 -140 -577 -253 -46
-34 -79 -54 -72 -46 24 28 164 120 266 173 56 30 97 54 91 54 -21 0 -209 -108
-298 -170 -90 -63 -317 -279 -317 -300 0 -6 6 -8 13 -4 6 4 3 -2 -7 -14 -23
-26 -34 -29 -15 -4 11 14 10 13 -9 -2 -23 -20 -31 -43 -10 -30 7 5 8 3 4 -5
-5 -7 -11 -10 -14 -7 -7 7 -32 -13 -32 -26 0 -6 8 -4 18 3 15 13 16 12 4 -3
-8 -10 -19 -16 -24 -15 -6 1 -13 -4 -16 -12 -3 -9 0 -11 8 -6 9 5 11 4 6 -4
-4 -6 -11 -9 -16 -6 -5 3 -14 -3 -19 -14 -14 -26 -14 -34 1 -25 7 4 8 3 4 -5
-4 -6 -11 -9 -16 -6 -13 8 -100 -168 -140 -280 -34 -98 -70 -245 -69 -285 1
-14 7 2 15 35 8 36 11 44 9 20 -3 -22 -10 -83 -15 -135 -7 -64 -10 -755 -7
-2090 3 -2101 1 -1990 42 -2182 4 -18 4 -30 1 -27 -4 4 -15 49 -26 100 -10 52
-19 84 -19 72 -1 -35 25 -152 59 -256 34 -107 149 -342 167 -342 6 0 15 -4 20
-9 5 -5 2 -6 -6 -1 -9 5 -12 3 -9 -6 3 -8 10 -14 16 -14 5 0 14 -4 19 -9 5 -5
2 -6 -6 -1 -9 5 -12 3 -9 -6 3 -8 10 -14 16 -14 5 0 14 -4 19 -9 5 -5 3 -6 -4
-2 -19 11 -16 -9 4 -25 11 -10 14 -10 9 -1 -11 18 -1 15 15 -5 10 -11 10 -14
2 -9 -22 12 -14 -10 9 -30 22 -19 23 -19 8 1 -15 20 -14 20 8 1 23 -20 30 -32
12 -21 -5 3 -10 2 -10 -4 0 -17 185 -196 271 -262 81 -61 273 -179 293 -179 6
0 -40 28 -101 63 -137 78 -252 169 -363 284 l-85 88 100 -96 c176 -170 336
-276 533 -354 91 -36 264 -84 306 -86 11 0 15 -3 8 -6 -17 -6 -144 22 -234 53
-39 13 -73 22 -75 20 -6 -5 139 -52 217 -71 58 -13 888 -15 7280 -15 6392 0
7222 2 7280 15 79 19 223 66 217 71 -2 2 -30 -5 -63 -17 -73 -25 -212 -59
-239 -58 -11 0 25 11 80 24 164 38 309 96 448 178 43 26 75 42 72 37 -3 -5
-54 -37 -113 -70 -59 -33 -102 -60 -97 -60 20 0 212 117 294 179 86 66 271
245 271 262 0 6 -6 7 -12 3 -7 -4 -4 2 6 14 23 26 34 29 15 5 -11 -15 -10 -14
9 1 23 20 31 42 10 30 -9 -5 -9 -2 1 9 16 20 26 23 15 5 -5 -9 -2 -9 9 1 20
16 23 36 4 25 -7 -4 -9 -3 -4 2 5 5 14 9 20 9 5 0 12 6 15 14 3 9 0 11 -9 6
-8 -5 -11 -4 -6 1 5 5 14 9 20 9 5 0 12 6 15 14 3 9 0 11 -8 6 -9 -5 -11 -4
-6 4 4 6 11 9 16 6 5 -3 14 3 19 14 14 26 14 34 -1 25 -7 -4 -8 -3 -4 5 4 6
12 9 17 5 13 -7 100 177 139 295 37 111 71 274 68 334 -1 39 -1 40 -5 7 -11
-110 -48 -288 -64 -305 -5 -5 -3 13 5 40 8 28 23 91 33 140 17 85 18 202 18
2140 l0 2050 -23 113 c-12 62 -27 124 -32 138 -7 17 -7 23 0 19 6 -3 10 -14
11 -23 0 -9 3 -12 5 -6 13 30 -145 392 -166 379 -5 -3 -12 0 -16 6 -4 8 -3 9
4 5 15 -9 15 -1 1 25 -5 11 -14 17 -19 14 -5 -3 -12 0 -16 6 -5 8 -3 9 6 4 8
-5 11 -3 8 6 -3 8 -10 13 -16 12 -5 -1 -16 5 -24 15 -12 15 -11 16 5 3 9 -7
17 -9 17 -3 0 11 -31 39 -37 34 -3 -2 -8 0 -11 4 -4 4 -1 4 6 0 18 -11 15 9
-5 25 -15 12 -16 12 -8 -1 5 -9 0 -8 -13 4 -25 21 -31 36 -7 16 10 -8 15 -9
15 -1 0 22 -237 248 -327 311 -89 63 -277 170 -298 170 -5 0 35 -24 91 -54
102 -53 242 -145 266 -173 7 -8 -26 12 -72 46 -93 67 -307 177 -410 210 -36
12 -103 30 -150 40 -47 11 -74 20 -60 20 30 1 185 -39 260 -68 30 -11 56 -19
58 -17 6 6 -106 46 -203 72 l-90 24 -7240 -1 c-3982 -1 -7226 -4 -7210 -8z
m14332 -327 c455 -67 834 -388 982 -830 64 -190 61 -83 61 -2260 0 -1762 -2
-1991 -16 -2075 -92 -546 -540 -964 -1094 -1019 -73 -8 -2247 -10 -7125 -8
-6467 3 -7026 5 -7090 20 -255 60 -441 158 -612 320 -151 145 -259 313 -322
504 -64 194 -61 78 -61 2255 0 1353 3 2002 11 2055 24 174 105 378 212 532
181 263 492 456 813 506 75 12 1195 14 7113 15 6297 1 7034 -1 7128 -15z"/>
<path d="M1885 6260 c-27 -27 -47 -51 -44 -54 2 -2 281 -122 620 -265 l616
-261 214 2 c187 3 210 5 184 16 -16 7 -348 148 -737 313 -815 345 -771 332
-853 249z"/>
<path d="M2495 6296 c17 -7 350 -149 742 -315 l712 -301 212 0 c117 0 209 4
203 8 -5 5 -336 147 -735 315 l-726 307 -219 0 c-190 -1 -215 -3 -189 -14z"/>
<path d="M4078 5995 l743 -315 215 2 215 3 -738 313 -738 312 -220 0 -220 0
743 -315z"/>
<path d="M4220 6303 c8 -4 343 -145 744 -315 l729 -308 214 2 215 3 -738 313
-739 312 -220 -1 c-121 0 -213 -3 -205 -6z"/>
<path d="M5091 6306 c2 -2 335 -144 739 -315 l734 -311 215 2 215 3 -738 313
-738 312 -216 0 c-118 0 -213 -2 -211 -4z"/>
<path d="M5961 6306 c2 -2 335 -144 740 -315 l735 -311 215 2 214 3 -737 313
-738 312 -217 0 c-119 0 -214 -2 -212 -4z"/>
<path d="M6831 6306 c2 -2 335 -143 740 -315 l736 -311 214 2 c187 3 210 5
184 16 -16 7 -348 148 -737 313 l-707 299 -217 0 c-120 0 -215 -2 -213 -4z"/>
<path d="M7725 6296 c17 -7 350 -149 742 -315 l711 -301 213 0 c117 0 209 4
203 8 -5 5 -336 146 -735 315 l-725 307 -220 0 c-190 -1 -215 -3 -189 -14z"/>
<path d="M9308 5995 l743 -315 215 2 215 3 -738 313 -738 312 -220 0 -220 0
743 -315z"/>
<path d="M9450 6303 c8 -4 343 -145 744 -315 l729 -308 214 2 215 3 -738 313
-739 312 -220 -1 c-121 0 -213 -3 -205 -6z"/>
<path d="M10321 6306 c2 -2 335 -144 739 -315 l734 -311 215 2 215 3 -738 313
-738 312 -216 0 c-118 0 -213 -2 -211 -4z"/>
<path d="M11191 6306 c2 -2 335 -144 740 -315 l735 -311 215 2 214 3 -737 313
-738 312 -217 0 c-119 0 -214 -2 -212 -4z"/>
<path d="M12061 6306 c2 -2 335 -143 740 -315 l736 -311 214 2 c182 3 210 5
186 16 -16 6 -348 147 -737 312 l-709 300 -217 0 c-120 0 -215 -2 -213 -4z"/>
<path d="M12955 6296 c17 -7 350 -149 742 -315 l712 -301 212 0 c117 0 209 4
203 8 -5 5 -336 147 -735 315 l-726 307 -219 0 c-190 -1 -215 -3 -189 -14z"/>
<path d="M14538 5995 l743 -315 215 2 215 3 -738 313 -738 312 -220 0 -220 0
743 -315z"/>
<path d="M14680 6303 c8 -4 343 -145 744 -315 l729 -308 214 2 215 3 -739 313
-738 312 -220 -1 c-121 0 -213 -3 -205 -6z"/>
<path d="M15551 6306 c2 -2 335 -144 739 -315 l734 -311 215 2 215 3 -738 313
-738 312 -216 0 c-118 0 -213 -2 -211 -4z"/>
<path d="M16445 6295 c192 -85 979 -414 982 -411 6 6 -60 133 -99 189 -32 48
-37 50 -255 143 l-223 94 -217 -1 c-190 -1 -214 -2 -188 -14z"/>
<path d="M1722 6057 c-6 -7 -26 -40 -46 -75 l-35 -63 42 -18 c23 -10 150 -64
283 -120 l240 -101 215 2 214 3 -375 159 c-206 87 -410 174 -452 192 -57 24
-79 30 -86 21z"/>
<path d="M3537 5419 c-50 -12 -121 -49 -185 -98 -42 -31 -59 -38 -75 -32 -34
13 -67 -5 -134 -71 -49 -48 -65 -59 -76 -50 -19 16 -191 -156 -181 -181 5 -13
-10 -35 -51 -78 -56 -58 -57 -62 -52 -103 5 -37 3 -46 -19 -67 l-24 -23 -43
42 -43 42 -104 -105 -105 -105 180 -180 180 -180 106 106 106 106 -41 39 -41
39 27 24 c22 20 34 23 67 19 38 -5 43 -3 106 58 l65 63 43 -39 c23 -22 150
-147 282 -277 l240 -238 93 93 92 92 -280 280 -279 279 65 68 c62 64 66 71 60
103 -6 32 -4 37 35 64 22 17 67 40 98 52 77 29 199 23 289 -14 67 -28 86 -27
103 5 13 25 -5 46 -110 130 -86 69 -184 121 -259 137 -60 13 -82 13 -135 0z"/>
<path d="M4672 5209 c-120 -23 -240 -116 -294 -227 -31 -63 -33 -74 -34 -180
l-1 -114 -468 -468 -468 -468 -116 -4 c-108 -3 -121 -6 -183 -37 -78 -38 -154
-113 -191 -187 -43 -85 -60 -210 -37 -270 l11 -28 152 152 c84 84 157 152 162
152 14 0 285 -272 285 -286 0 -5 -70 -77 -156 -159 -180 -171 -180 -170 -19
-163 77 3 99 9 157 37 85 42 158 118 201 208 30 63 32 75 32 175 l0 108 470
471 470 471 62 -6 c228 -20 423 127 464 350 11 59 4 164 -11 164 -4 0 -74 -67
-156 -150 -81 -82 -152 -150 -157 -150 -12 0 -266 249 -279 273 -8 16 13 42
144 175 l153 156 -40 7 c-51 10 -98 9 -153 -2z"/>
<path d="M6454 5036 c-3 -8 -4 -261 -2 -563 l4 -548 27 -100 c39 -143 69 -197
167 -296 127 -129 217 -166 465 -190 155 -15 354 -6 464 21 182 45 331 161
409 320 79 160 76 135 80 788 l3 582 -261 0 -260 0 0 -543 c0 -587 -1 -597
-54 -677 -14 -22 -47 -51 -73 -67 -40 -23 -61 -28 -140 -31 -140 -6 -212 27
-271 127 l-27 46 -5 570 -5 570 -258 3 c-215 2 -258 0 -263 -12z"/>
<path d="M8777 5043 c-4 -3 -7 -384 -7 -845 l0 -838 245 0 245 0 2 460 3 460
314 -460 314 -460 248 0 249 0 -2 843 -3 842 -245 0 -245 0 -5 -458 -5 -459
-314 461 -313 461 -237 0 c-131 0 -241 -3 -244 -7z"/>
<path d="M11097 5043 c-4 -3 -7 -384 -7 -845 l0 -839 473 3 472 4 98 26 c133
37 207 78 298 168 59 59 86 95 121 167 71 142 83 208 83 468 0 194 -3 230 -23
308 -43 172 -131 317 -243 401 -112 85 -211 119 -389 136 -116 11 -873 14
-883 3z m824 -407 c93 -34 150 -105 180 -226 9 -36 14 -113 14 -225 0 -147 -3
-179 -22 -240 -26 -80 -68 -137 -124 -166 -48 -24 -176 -41 -279 -37 l-75 3
-3 459 -2 458 132 -5 c88 -3 148 -10 179 -21z"/>
<path d="M13270 4205 l0 -845 710 0 710 0 0 190 0 190 -450 0 -450 0 0 165 0
165 405 0 405 0 0 175 0 175 -405 0 -405 0 0 130 0 130 438 2 437 3 0 180 0
180 -697 3 -698 2 0 -845z"/>
<path d="M15338 5044 c-5 -4 -8 -385 -8 -846 l0 -838 265 0 265 0 0 340 0 340
48 0 c68 -1 126 -30 164 -84 17 -25 98 -169 179 -318 l148 -273 296 -3 c163
-1 295 1 293 6 -34 81 -273 522 -304 563 -42 55 -129 139 -144 139 -4 0 -25 7
-45 16 l-38 16 73 24 c181 61 295 195 320 375 11 82 2 183 -24 257 -33 93
-120 187 -213 229 -108 50 -167 55 -738 60 -291 3 -533 2 -537 -3z m877 -355
c103 -28 146 -140 90 -235 -18 -31 -36 -46 -67 -58 -68 -25 -153 -36 -270 -36
l-108 0 0 170 0 170 158 0 c86 0 175 -5 197 -11z"/>
<path d="M4174 3890 l-90 -89 276 -276 275 -275 93 93 92 93 -270 269 c-149
149 -274 271 -278 272 -4 2 -48 -38 -98 -87z"/>
<path d="M2280 2714 c-160 -34 -298 -139 -363 -276 -49 -102 -67 -194 -67
-335 0 -209 46 -341 160 -466 71 -78 164 -129 275 -152 94 -20 303 -20 380 0
175 45 286 149 352 331 13 37 21 69 19 72 -6 6 -329 103 -331 100 -1 -2 -8
-24 -15 -51 -19 -69 -63 -133 -108 -156 -53 -27 -127 -36 -182 -21 -122 32
-170 129 -170 340 0 125 14 188 53 248 97 144 321 128 392 -27 10 -23 22 -41
27 -41 14 0 321 70 325 74 2 2 -17 43 -41 93 -101 201 -253 284 -520 282 -67
0 -150 -7 -186 -15z"/>
<path d="M3621 2714 c-216 -46 -374 -202 -427 -420 -24 -95 -24 -295 -1 -388
25 -101 71 -188 133 -255 117 -127 231 -171 454 -178 107 -4 164 -1 217 11
205 43 355 182 418 386 25 82 31 314 11 410 -49 228 -206 387 -431 435 -88 18
-288 18 -374 -1z m287 -289 c104 -44 152 -144 152 -316 0 -250 -73 -354 -250
-354 -87 0 -137 22 -188 79 -78 89 -92 341 -28 482 23 50 68 93 116 113 39 15
156 13 198 -4z"/>
<path d="M6364 2716 c-183 -42 -301 -164 -312 -322 -6 -96 15 -158 78 -227 72
-79 198 -137 391 -181 108 -24 176 -54 200 -87 63 -89 -12 -189 -141 -189
-100 1 -177 55 -201 143 -6 23 -13 48 -15 56 -3 8 -13 11 -27 8 -12 -3 -91 -9
-175 -13 -84 -4 -154 -10 -156 -13 -9 -14 18 -121 44 -177 84 -176 229 -244
519 -244 204 0 337 44 432 141 137 140 150 365 29 503 -69 78 -171 123 -406
181 -167 41 -200 55 -216 90 -28 63 29 115 125 115 96 0 158 -43 174 -120 l6
-33 156 7 c86 4 166 10 179 13 28 7 29 34 1 110 -42 114 -118 186 -239 225
-84 27 -349 35 -446 14z"/>
<path d="M11650 2714 c-190 -41 -334 -171 -397 -359 -25 -73 -27 -93 -28 -245
0 -148 3 -173 24 -244 62 -201 210 -339 407 -381 82 -17 291 -20 366 -4 149
31 271 128 337 271 22 46 42 95 45 110 7 30 16 25 -189 87 -144 43 -135 43
-151 -10 -20 -67 -72 -139 -119 -163 -53 -28 -164 -29 -215 -2 -91 48 -120
115 -127 291 -8 191 28 295 121 350 118 69 267 25 321 -95 10 -22 22 -40 27
-40 5 0 79 16 165 35 86 19 158 35 160 35 9 0 -43 112 -72 157 -104 158 -249
224 -489 222 -67 0 -150 -7 -186 -15z"/>
<path d="M14890 2714 c-163 -35 -309 -146 -375 -286 -53 -113 -68 -185 -68
-328 0 -201 44 -333 149 -449 68 -74 133 -116 232 -148 64 -21 102 -27 222
-30 229 -7 359 31 479 143 125 116 171 231 179 450 8 230 -34 365 -150 490
-71 76 -181 136 -293 159 -88 18 -288 18 -375 -1z m308 -300 c102 -51 137
-146 130 -349 -5 -142 -27 -206 -90 -260 -70 -59 -189 -71 -276 -26 -93 48
-135 147 -135 321 0 232 79 340 249 340 55 0 81 -5 122 -26z"/>
<path d="M4650 2100 l0 -610 175 0 175 0 2 333 3 332 225 -330 226 -330 182
-3 182 -2 0 610 0 610 -180 0 -180 0 -2 -331 -3 -332 -225 331 -225 331 -177
1 -178 0 0 -610z"/>
<path d="M7220 2560 l0 -150 190 0 190 0 0 -460 0 -460 190 0 190 0 0 460 0
460 195 0 195 0 0 150 0 150 -575 0 -575 0 0 -150z"/>
<path d="M8540 2100 l0 -610 193 0 192 0 -2 245 -2 245 42 0 c86 0 107 -26
272 -338 l80 -152 216 0 216 0 -101 195 c-111 215 -163 285 -236 319 l-48 22
52 18 c97 35 170 99 209 186 31 67 30 216 -1 285 -27 60 -82 119 -136 147 -81
42 -149 48 -558 48 l-388 0 0 -610z m670 342 c76 -37 76 -152 0 -196 -28 -17
-57 -21 -162 -24 l-127 -4 0 121 0 121 127 0 c101 0 134 -4 162 -18z"/>
<path d="M9840 2314 c0 -367 2 -403 21 -485 45 -194 172 -310 376 -346 110
-19 373 -13 444 10 156 51 267 167 310 325 17 60 19 108 19 479 l0 413 -190 0
-190 0 0 -404 c0 -262 -4 -415 -11 -433 -12 -34 -55 -80 -89 -98 -68 -34 -187
-23 -242 23 -67 56 -68 62 -68 510 l0 402 -190 0 -190 0 0 -396z"/>
<path d="M12510 2560 l0 -150 190 0 190 0 0 -460 0 -460 190 0 190 0 0 460 0
460 195 0 195 0 0 150 0 150 -575 0 -575 0 0 -150z"/>
<path d="M13840 2100 l0 -610 190 0 190 0 0 610 0 610 -190 0 -190 0 0 -610z"/>
<path d="M15920 2100 l0 -610 180 0 181 0 -3 330 c-2 181 1 325 5 321 5 -5
107 -152 226 -327 l218 -319 182 -3 181 -2 0 610 0 610 -180 0 -180 0 -2 -331
-3 -331 -225 331 -225 331 -177 0 -178 0 0 -610z"/>
<path d="M1601 1115 c3 -2 335 -144 738 -315 l734 -310 214 2 215 3 -739 313
-738 312 -214 0 c-118 0 -212 -2 -210 -5z"/>
<path d="M2471 1116 c2 -2 334 -144 738 -315 l735 -311 215 2 214 3 -737 313
-738 312 -216 0 c-118 0 -213 -2 -211 -4z"/>
<path d="M3365 1105 c17 -7 349 -149 740 -314 l710 -301 220 0 220 0 -743 315
-743 315 -217 -1 c-189 -1 -213 -2 -187 -14z"/>
<path d="M4211 1116 c2 -2 335 -143 739 -315 l736 -311 219 0 220 1 -90 38
c-49 21 -383 163 -742 315 l-652 276 -217 0 c-120 0 -215 -2 -213 -4z"/>
<path d="M5090 1115 c0 -3 12 -10 27 -16 15 -5 345 -145 735 -310 l707 -299
215 2 215 3 -738 313 -739 312 -211 0 c-116 0 -211 -2 -211 -5z"/>
<path d="M5970 1111 c8 -5 340 -147 738 -315 l723 -306 215 2 214 3 -738 313
-738 312 -214 0 c-128 0 -209 -4 -200 -9z"/>
<path d="M6831 1115 c3 -2 335 -144 738 -315 l734 -310 214 2 215 3 -739 313
-738 312 -214 0 c-118 0 -212 -2 -210 -5z"/>
<path d="M7701 1116 c2 -2 334 -144 738 -315 l735 -311 215 2 215 3 -740 313
-739 312 -214 0 c-118 0 -212 -2 -210 -4z"/>
<path d="M8595 1105 c17 -7 349 -149 740 -314 l710 -301 220 0 220 0 -743 315
-743 315 -217 -1 c-190 -1 -213 -2 -187 -14z"/>
<path d="M9441 1116 c2 -2 335 -143 740 -315 l736 -311 215 2 215 3 -738 313
-738 312 -217 0 c-120 0 -215 -2 -213 -4z"/>
<path d="M10320 1115 c0 -3 12 -10 27 -16 15 -5 345 -145 735 -310 l707 -299
215 2 214 3 -738 313 -737 312 -212 0 c-116 0 -211 -2 -211 -5z"/>
<path d="M11200 1111 c8 -5 340 -147 738 -315 l722 -306 216 2 216 3 -219 92
c-120 51 -452 191 -738 312 l-520 221 -215 0 c-127 -1 -209 -4 -200 -9z"/>
<path d="M12061 1115 c3 -2 335 -144 738 -315 l734 -310 214 2 215 3 -739 313
-738 312 -214 0 c-118 0 -212 -2 -210 -5z"/>
<path d="M12931 1116 c2 -2 334 -144 738 -315 l735 -311 215 2 215 3 -740 313
-739 312 -214 0 c-118 0 -212 -2 -210 -4z"/>
<path d="M13801 1116 c2 -2 335 -144 739 -315 l735 -311 220 0 220 0 -743 315
-743 315 -216 0 c-119 0 -214 -2 -212 -4z"/>
<path d="M14671 1116 c2 -2 335 -143 740 -315 l736 -311 215 2 215 3 -738 313
-738 312 -217 0 c-120 0 -215 -2 -213 -4z"/>
<path d="M15550 1115 c0 -3 12 -10 27 -16 15 -5 345 -145 734 -309 389 -165
718 -300 731 -300 14 1 47 23 83 55 49 44 57 57 45 64 -8 6 -281 123 -606 261
l-591 250 -212 0 c-116 0 -211 -2 -211 -5z"/>
<path d="M16430 1110 c9 -4 208 -90 444 -190 332 -140 431 -178 438 -168 44
67 79 130 74 135 -3 3 -126 57 -273 119 l-268 114 -215 0 c-131 0 -209 -4
-200 -10z"/>
<path d="M1685 853 c39 -67 108 -164 137 -191 13 -12 104 -56 201 -97 l177
-75 215 2 215 3 -478 203 c-263 111 -482 202 -486 202 -4 0 4 -21 19 -47z"/>
<path d="M17980 5699 c0 -2 10 -49 22 -104 l22 -100 6 -2025 6 -2025 -1 2025
-1 2025 -22 99 c-12 54 -24 101 -27 104 -3 3 -5 3 -5 1z"/>
<path d="M1026 5439 c-8 -81 -6 -3967 2 -4039 4 -30 7 880 7 2022 0 1143 0
2078 -1 2078 -1 0 -4 -28 -8 -61z"/>
</g>
</svg>
